<?xml version="1.0" encoding="utf-8"?>
<!-- Generator: Adobe Illustrator 23.0.4, SVG Export Plug-In . SVG Version: 6.00 Build 0)  -->
<svg version="1.1" id="Layer_1" xmlns="http://www.w3.org/2000/svg" xmlns:xlink="http://www.w3.org/1999/xlink" x="0px" y="0px"
	 viewBox="0 0 173 57" style="enable-background:new 0 0 173 57;" xml:space="preserve">
<style type="text/css">
	.st0{fill:url(#SVGID_1_);}
	.st1{fill:#172D4C;}
	.st2{fill:#070F19;}
	.st3{fill:#FFFFFF;}
	.st4{fill:#F8E5CD;}
	.st5{fill:#0F1E33;}
	.st6{fill:#EE4035;}
	.st7{fill:url(#SVGID_2_);}
	.st8{fill:url(#SVGID_3_);}
	.st9{fill:url(#SVGID_4_);}
	.st10{fill:url(#SVGID_5_);}
	.st11{fill:url(#SVGID_6_);}
	.st12{fill:url(#SVGID_7_);}
	.st13{fill:url(#SVGID_8_);}
	.st14{fill:url(#SVGID_9_);}
	.st15{fill:url(#SVGID_10_);}
</style>
<title>logo</title>
<g>
	
		<linearGradient id="SVGID_1_" gradientUnits="userSpaceOnUse" x1="0.4771" y1="28.4949" x2="45.2251" y2="28.4949" gradientTransform="matrix(1 0 0 -1 0 57)">
		<stop  offset="0" style="stop-color:#2C31CF"/>
		<stop  offset="1" style="stop-color:#5419DD"/>
	</linearGradient>
	<path class="st0" d="M22.9,56c-0.1,0-0.1,0-0.2,0l-0.6-0.3C16.5,53,11.7,49.1,7.9,44.2c-2.9-3.7-4.9-8-6.1-12.6
		c-1.3-4.7-1.6-9.6-1-14.4L1,16.4c0-0.2,0.1-0.3,0.3-0.3l5.3-1.5c0.5-0.5,1.1-1,1.6-1.5l-1.8-0.3c-0.2,0-0.4-0.2-0.4-0.5
		c0-0.1,0.1-0.3,0.2-0.3L8,11.1l-0.7-0.2c-0.2-0.1-0.3-0.2-0.3-0.4c0-0.2,0.1-0.3,0.2-0.4l3.8-1.8L7.4,6.2C7.2,6.1,7.1,5.9,7.2,5.7
		c0-0.2,0.2-0.3,0.4-0.3l4.9-0.3l2.3-0.1h1.1l-3.1-3.3c-0.1-0.1-0.2-0.3-0.1-0.5C12.7,1.1,12.8,1,13,1l4.7,0.1
		c2.9,0.1,5.7,1,8.2,2.6c1-0.6,2.3-0.4,3,0.5c1,1,4.2,4.4,4.4,8.7l11.2,3.2c0.2,0,0.3,0.2,0.3,0.3l0.2,0.9c0.6,4.8,0.3,9.7-1,14.4
		c-1.2,4.6-3.3,8.8-6.1,12.6C34,49.1,29.2,53,23.7,55.6L23.1,56C23,56,22.9,56,22.9,56z"/>
	<path class="st1" d="M43.1,17.6l-20.2-5.8L2.6,17.6c0,0-4.3,24.1,20.2,36.4C47.4,41.7,43.1,17.6,43.1,17.6z"/>
	<path class="st1" d="M32.5,23.5c-0.7-1.1-1.5-2.2-2.4-3.2c-1.7-2-3.2-3-4.2-3c-0.2,0-0.4,0-0.6,0.1c-0.3,0.2-0.7,0.3-1.1,0.4l0,0
		c-0.7,0-1.2-0.5-1.2-1.2c0,0,0-0.1,0-0.1c0.2-2.4,2-4.2,4.4-4.5h0.1c2.1,0,3.9,1.8,5,3.3c0.9,1.1,2.4,3.6,2.2,4.2
		c-0.1,0.5-1.3,3.5-1.4,3.9l-0.4,1L32.5,23.5z"/>
	<path class="st2" d="M37.5,47.5l-0.3-0.1c-0.6-0.3-1.3-0.4-1.9-0.4h-0.9c-0.8,0.1-1.6,0.3-2.4,0.7h-0.1h-0.7c-0.1,0-0.1,0-0.2,0
		c0,0-0.1,0-0.1,0l-1.5-0.3l-0.8-0.7c-0.1-0.1-0.2-0.1-0.4-0.1c-0.1,0,0-0.5,0.1-0.7c0.1-0.2,0.1-0.5-0.1-0.7
		c-0.5-0.5-1.2-0.8-1.9-0.8c-0.1,0-0.3,0-0.4,0.1c-0.1,0.1-0.2,0.2-0.3,0.3c-0.6-0.5-1.3-0.7-2.1-0.7c-0.3,0-0.7,0-1,0.1
		c-0.2,0-0.4,0.2-0.5,0.4c0,0.1,0,0.2,0,0.3c-0.8,0.5-1.5,1-2.2,1.6l-0.9-0.6c-0.1-0.1-0.2-0.1-0.3-0.1h-0.1c0-0.5-0.2-1-0.3-1.5
		c0.9-0.6,1.5-1.5,2-2.4c0.2-0.7,0.1-1.5-0.2-2.2c-0.2-0.3-0.5-0.4-0.8-0.4c-0.1,0-0.2,0-0.3,0c-0.1,0-0.2,0.1-0.3,0.2l-0.1,0.1
		c-0.6,1.1-1.5,2-2.7,2.4l-1.3-1.3c-0.4-0.5-1.8-1.9-2.8-1.9c-0.3,0-0.5,0.1-0.7,0.2c-0.6,0.4-0.9,1.1-1,1.8c0,0.3,0.1,0.6,0.3,0.9
		c0.3,0.3,1.7,1.6,2.2,2c-0.3,0.2-0.5,0.4-0.7,0.8c-0.1,0.3-0.2,0.6-0.2,0.9c-0.1,0.3-0.1,0.6,0,0.9c-0.1,0.2-0.1,0.4-0.2,0.5v0.1
		c-0.6,1.8,1.1,3.1,1.4,3.3c0.3,0.2,0.6,0.4,0.9,0.5c0.4,0.1,0.7,0.1,1.1,0.1l0,0c0.5,0,1-0.1,1.5-0.4l0.1,0.1
		c0.2,0.2,0.4,0.3,0.7,0.3l0,0c0.4,0,0.9-0.2,1.1-0.5l0,0c0.1,0,0.1,0,0.2,0c0.5,0,0.9-0.1,1.3-0.2c0.8-0.3,1.5-0.8,2.1-1.5
		c-0.2,1.5,6,2.8,7.5,1.4l0.8,0.4c0,0.7,1.1,0.8,1.6,0.8c0.2,0,0.3-0.1,0.4-0.2l0.9,0.4c0.5,0.4,1.1,0.5,1.7,0.5c0.3,0,0.5,0,0.8,0
		c0,0.3,0,0.6,0,0.9c0.1,0.4,0.4,0.7,0.8,0.7c0.2,0,0.3,0,0.5-0.1c0.1,0.1,0.3,0.1,0.5,0.1c0.5,0,0.8-0.3,1-0.8
		c0.4-0.1,0.7-0.3,0.8-0.7c0.1-0.4,0.2-0.9,0.2-1.3C39.6,49.2,38.8,47.9,37.5,47.5z"/>
	<path class="st2" d="M32.1,47.7h-0.1h-0.7c-0.1,0-0.1,0-0.2,0c0,0-0.1,0-0.1,0l-1.5-0.3l-0.8-0.7c-0.1-0.1-0.2-0.1-0.4-0.1
		c-0.1,0,0-0.5,0.1-0.7c0.1-0.2,0.1-0.5-0.1-0.7c-0.5-0.5-1.2-0.8-1.9-0.8c-0.1,0-0.3,0-0.4,0.1c-0.1,0.1-0.2,0.2-0.3,0.3
		c-0.6-0.5-1.3-0.7-2.1-0.7c-0.3,0-0.7,0-1,0.1c-0.2,0-0.4,0.2-0.5,0.4c0,0.1,0,0.2,0,0.3c-0.8,0.5-1.5,1-2.2,1.6l-0.9-0.6
		c-0.1-0.1-0.2-0.1-0.3-0.1h-0.1c0-0.5-0.2-1-0.3-1.5c0.9-0.6,1.5-1.5,2-2.4c0.2-0.7,0.1-1.5-0.2-2.2c-0.2-0.3-0.5-0.4-0.8-0.4
		c-0.1,0-0.2,0-0.3,0c-0.1,0-0.2,0.1-0.3,0.2l-0.1,0.1c-0.6,1.1-1.5,2-2.7,2.4l-1.3-1.3c-0.4-0.5-1.8-1.9-2.8-1.9
		c-0.3,0-0.5,0.1-0.7,0.2c-0.6,0.4-0.9,1.1-1,1.8c0,0.3,0.1,0.6,0.3,0.9c0.3,0.3,1.7,1.6,2.2,2c-0.3,0.2-0.5,0.4-0.7,0.8
		c-0.1,0.3-0.2,0.6-0.2,0.9c0,0.2-0.1,0.4-0.1,0.5c1.7,1.8,3.5,3.4,5.5,4.8c0.4,0,0.8-0.2,1.1-0.5l0,0c0.1,0,0.1,0,0.2,0
		c0.5,0,0.9-0.1,1.3-0.2c0.8-0.3,1.6-0.8,2.2-1.5c-0.2,1.5-0.6,3.1-1,4.6c0.6,0.3,1.2,0.7,1.9,1c3.4-1.7,6.6-3.9,9.4-6.4L32.1,47.7z
		"/>
	<polygon class="st3" points="28.3,47.1 29.2,47.9 30.8,48.2 30.6,49.7 29.3,49.3 	"/>
	<path class="st3" d="M31.3,48.2h0.7c-0.1,0.8-0.1,1.5,0,2.3c-0.7,0-1.1-0.2-1.1-0.3C31,49.7,31.3,48.2,31.3,48.2z"/>
	<path class="st3" d="M24.3,46.5c0,0,0.2-0.9,1.8-0.8c-0.5-0.5-1.1-1.4-3.3-1.1C23.5,45.1,24.1,45.7,24.3,46.5z"/>
	<path class="st2" d="M23.8,45.1C20.5,45,17.2,44,14.5,42c-2.1-1.5-3.8-3.3-3.9-4s-2.4-5.7-3.8-8.8c0-0.1,0-0.2,0-0.2l0.3-9.6
		c0-0.2,0.1-0.4,0.3-0.5l6.9-2.8h0.2l4.9-0.4h0.2l9.1,2c0,0,0.1,0,0.1,0c0.2,0.1,5.3,2.3,5.9,10.8s-1.7,14.3-6.3,16
		C26.9,44.9,25.4,45.1,23.8,45.1z"/>
	<path class="st4" d="M28.5,18c0,0,4.9,2.1,5.6,10.4s-1.6,13.9-5.9,15.5c-9.7,3.6-16.9-4.9-17.1-6s-3.9-8.9-3.9-8.9l0.3-9.6l6.9-2.9
		l4.9-0.5L28.5,18z"/>
	<path class="st2" d="M21.7,24.2c0,0-3.1-2.6-4.9-1.2c-0.5,0.9-0.8,2-0.7,3C16.2,26,17.5,22.5,21.7,24.2z"/>
	<path class="st2" d="M27.6,28.2c0,0,1.6,4.4,2.9,5.5c-0.1,1.2-2.2,2.5-5.4,0.8c0,0,3.6,0.8,4.4-0.7C29.2,33.3,27.6,29.6,27.6,28.2z
		"/>
	<path class="st1" d="M27.5,5.4c-0.1-0.2-0.3-0.3-0.5-0.2c-0.2,0-0.3,0.1-0.4,0.2c-0.1,0.1-0.2,0.2-0.2,1.1
		c-2.5-2.1-5.6-3.3-8.8-3.5h-1.3l3.8,4h-5.3L12.5,7l2,1c0,0,0.5,0.3,1.2,0.6c-1.1,0.3-2.1,0.6-3.1,1.1l-1.3,0.6l1.5,0.5l-0.4,0.2
		L11,11.6l1.7,0.3c0.2,0,0.4,0.1,0.6,0.2c-4.3,2.1-7.8,5.6-9.8,10c-0.2,0.5-0.1,1.6,1.3,5.7c0.8,2.2,1.7,4.3,1.7,4.3l0.1,0.2
		l0.2,0.1c0.2,0.1,4.9,2.1,6.7,2.6l1.3,0.3l-0.7-1.2c-1.3-2.2-2.1-4.6-2.4-7.1c-0.1-0.3-0.1-0.7-0.2-1c-0.3-1.5,2.3-4.6,4.1-6.4
		c1,0.6,3.6,2,8.6,2.3h0.7c2.7,0,4.5-0.9,5.4-2.7c0.7-1.8,1.1-3.7,1-5.6C31.6,9.5,28.1,6,27.5,5.4z"/>
	<path class="st2" d="M13.5,28.5c2.2-0.9,4.6-1.6,7-1.9c3.2-0.3,3.9,0.4,4.4,0.7c0.8,0.2,1.7,0.2,2.4-0.1c0.7-0.3-0.2-1.2,3.3-1.8
		s4.8-1,5.6,0.5s1.2,5.1-0.3,5.8s-4.2,1.5-5.3,0.9c-1.3-0.9-2.3-2.2-2.8-3.7c-0.7-0.3-2.3-0.7-2.5,0.2s0,2.9-1.3,3.7
		S17.7,35,16.5,34c-1.3-1-2-2.5-1.8-4.1c-0.4-0.1-0.8-0.1-1.2-0.1l-4.9,2L7,30.7l6.4-1.6L13.5,28.5z"/>
	<path class="st3" d="M16.6,28.4c1.1-0.4,2.2-0.7,3.3-0.9c2.1-0.3,4.3-0.7,4.5,1.5s-0.4,3.3-1.1,3.5s-4.9,1.4-5.8,1
		c-1.1-0.6-1.8-1.8-1.9-3.1C15.3,29.6,15.7,28.7,16.6,28.4z"/>
	<path class="st3" d="M30.9,26.3c1-0.2,2.1-0.3,3.1-0.3c1.9,0,2.1,1,2.3,2.5s0.3,2.5-1.6,3.1c-1.9,0.7-3,0.7-3.8,0.3
		s-2.4-1.2-2.2-4.1C28.8,26.5,30.4,26.4,30.9,26.3z"/>
	<path class="st4" d="M11.7,32.9c-0.4-0.4-3.8-4.4-7.6-1.4c-0.8,0.8-1.7,2.1,1.4,4.4s4,2.9,5.6,1.9S15.1,35.7,11.7,32.9z"/>
	<path class="st1" d="M9.8,38.5c-1.1,0-2.2-0.8-4.4-2.4C3.9,35,3.1,34,3.1,33c0-0.7,0.3-1.4,0.8-1.8l0,0c1.4-1.2,3.3-1.5,5-0.7
		c1.1,0.5,2,1.2,2.8,2l0.2,0.2l0,0c1.3,1.1,1.9,2,1.8,2.8c-0.1,1-1.1,1.7-2,2.2L11.3,38C10.8,38.3,10.3,38.5,9.8,38.5z M4.3,31.7
		C3.9,32,3.6,32.5,3.6,33c0.1,0.8,0.8,1.6,2.1,2.6c3.2,2.4,3.9,2.8,5.2,1.9l0.4-0.3c0.8-0.5,1.7-1,1.8-1.8s-0.5-1.4-1.6-2.4
		l-0.2-0.2C8.8,30.4,6.4,30,4.3,31.7z"/>
	<path class="st2" d="M5.4,33.3c0.5-0.4,1.1-0.6,1.8-0.5c1.4-0.1,2.8,0.6,3.6,1.8c-0.8-0.4-2.3-1.2-2.3-1.2S7.6,35,8.8,35.2
		c0.7,0.1,1.3,0.1,2,0c0,0-1.1,1-1.6,0.8s-1.7-0.5-1.7-2.6C6.8,33.2,6.1,33.2,5.4,33.3z"/>
	<path class="st2" d="M26.5,41.3c-1.4,0.1-2.7-0.4-3.7-1.4c-0.2,0.2-0.3,0.4-0.4,0.7c0,0-0.1,0.1-0.1,0.1l0,0c0,0-0.1,0-0.1-0.1
		c-0.2-0.4-0.1-0.8,0.1-1.1c0.4-0.5,1-0.7,1.7-0.7l0,0c0.1,0,0.1,0,0.1,0.1c0,0,0,0.1,0,0.1c0,0,0,0,0,0c-0.3,0.1-0.5,0.2-0.8,0.4
		c0.7,0.7,1.5,1.1,2.5,1.2c0.2,0,0.4,0,0.5,0c1.4-0.1,2.8-0.6,4.1-1.2l0,0c0,0,0.1,0,0.1,0c0,0,0,0.1,0,0.2
		c-0.8,0.7-1.8,1.2-2.8,1.5C27.3,41.2,26.9,41.3,26.5,41.3z"/>
	<path class="st5" d="M18,30.8c0.3,0,0.3-0.2,0.3-0.3s-0.1-0.2-0.1-0.3c0-0.1-0.1-0.2-0.1-0.3c-0.1-0.4,0.1-0.5,0.5-0.6h0.1v0.2
		h-0.1c-0.2,0-0.3,0.2-0.2,0.4c0,0.1,0,0.2,0.1,0.3c0,0.1,0.1,0.2,0.1,0.3c0.1,0.2,0,0.4-0.2,0.5l0,0c0.2,0,0.3,0.1,0.4,0.4
		c0,0.1,0,0.2,0,0.3c0,0.1,0,0.2,0,0.3S18.8,32,19,32h0.1v0.2H19c-0.2,0.1-0.5,0-0.6-0.3c0,0,0-0.1,0-0.1c0-0.1,0-0.2,0-0.3
		c0-0.1,0-0.2,0-0.3c0-0.1-0.1-0.3-0.4-0.2L18,30.8z"/>
	<path class="st5" d="M19.4,31.5c0-0.1,0-0.2,0.2-0.3s0.2,0,0.3,0.2c0,0,0,0,0,0.1c0,0.1-0.1,0.3-0.2,0.3
		C19.5,31.8,19.4,31.7,19.4,31.5C19.4,31.5,19.4,31.5,19.4,31.5z"/>
	<path class="st5" d="M20.2,31.4c0-0.1,0.1-0.2,0.2-0.3c0.1,0,0.2,0.1,0.3,0.2s-0.1,0.2-0.2,0.3C20.3,31.6,20.2,31.5,20.2,31.4
		L20.2,31.4z"/>
	<path class="st5" d="M21,31.2c0-0.1,0-0.2,0.1-0.3c0,0,0,0,0,0c0.1,0,0.2,0,0.3,0.1c0,0,0,0,0,0c0,0.1,0,0.2-0.2,0.3c0,0,0,0,0,0
		C21.1,31.5,21,31.4,21,31.2z"/>
	<path class="st5" d="M22.4,30.1c-0.3,0-0.3,0.2-0.3,0.3c0,0.1,0.1,0.2,0.1,0.3c0,0.1,0.1,0.2,0.1,0.3c0.1,0.3-0.1,0.5-0.3,0.6
		c0,0-0.1,0-0.1,0h-0.1v-0.2h0.1c0.2,0,0.3-0.2,0.2-0.4c0-0.1,0-0.2-0.1-0.3c0-0.1-0.1-0.2-0.1-0.3c-0.1-0.2,0-0.4,0.2-0.5l0,0
		c-0.2,0-0.3-0.1-0.4-0.4c0-0.1,0-0.2,0-0.3c0-0.1,0-0.2,0-0.3s-0.1-0.3-0.4-0.3h-0.1v-0.2h0.1c0.3-0.1,0.6,0,0.6,0.4
		c0,0.1,0,0.2,0,0.3c0,0.1,0,0.2,0,0.3c0,0.1,0.1,0.3,0.4,0.2L22.4,30.1z"/>
	<path class="st5" d="M30.4,29.2c0.3,0,0.3-0.2,0.3-0.3s-0.1-0.2-0.1-0.3c0-0.1-0.1-0.2-0.1-0.3c-0.1-0.3,0.1-0.5,0.4-0.6
		c0,0,0.1,0,0.1,0H31v0.2h-0.1c-0.2,0-0.3,0.2-0.2,0.4c0,0.1,0,0.2,0.1,0.3c0,0.1,0.1,0.2,0.1,0.3c0.1,0.2,0,0.4-0.2,0.5l0,0
		c0.2,0,0.3,0.1,0.4,0.4c0,0.1,0,0.2,0,0.3c0,0.1,0,0.2,0,0.3c0,0.2,0.1,0.3,0.4,0.3h0.1v0.2h-0.1c-0.3,0.1-0.5,0-0.6-0.3
		c0,0,0-0.1,0-0.1c0-0.1,0-0.2,0-0.3c0-0.1,0-0.2,0-0.3s-0.1-0.3-0.4-0.2L30.4,29.2z"/>
	<path class="st5" d="M31.7,30c0-0.1,0-0.2,0.1-0.3c0,0,0,0,0,0c0.1,0,0.2,0,0.3,0.1c0,0,0,0,0,0c0,0.1,0,0.2-0.2,0.3
		S31.7,30.2,31.7,30C31.7,30,31.7,30,31.7,30z"/>
	<path class="st5" d="M32.5,29.8c0-0.1,0-0.2,0.1-0.3c0,0,0,0,0,0c0.1,0,0.2,0.1,0.3,0.2c0,0.1,0,0.2-0.2,0.3c0,0,0,0,0,0
		C32.6,30.1,32.5,30,32.5,29.8C32.5,29.9,32.5,29.8,32.5,29.8z"/>
	<path class="st5" d="M33.3,29.7c0-0.1,0.1-0.3,0.2-0.3c0,0,0,0,0,0c0.1,0,0.2,0.1,0.3,0.2c0,0.1-0.1,0.3-0.2,0.3
		C33.4,29.9,33.3,29.8,33.3,29.7L33.3,29.7z"/>
	<path class="st5" d="M34.7,28.6c-0.3,0-0.3,0.2-0.3,0.3s0.1,0.2,0.1,0.3s0.1,0.2,0.1,0.3c0.1,0.3-0.1,0.5-0.3,0.6c0,0-0.1,0-0.1,0
		h-0.1L34,30h0.1c0.2,0,0.3-0.2,0.2-0.4c0-0.1,0-0.2-0.1-0.3c0-0.1-0.1-0.2-0.1-0.3c-0.1-0.2,0-0.4,0.2-0.5l0,0
		c-0.2,0-0.4-0.2-0.3-0.4c0-0.1,0-0.2,0-0.3c0-0.1,0-0.2,0-0.3c0-0.2-0.1-0.3-0.4-0.3h-0.1v-0.2h0.1c0.3-0.1,0.5,0,0.6,0.3
		c0,0,0,0.1,0,0.1c0,0.1,0,0.2,0,0.3c0,0.1,0,0.2,0,0.3s0.1,0.3,0.4,0.2L34.7,28.6z"/>
	<path class="st2" d="M27.9,23.7c0,0,3-5.5,4.4,0C31.2,22.5,30.5,22.1,27.9,23.7z"/>
	<path class="st3" d="M26.5,45.8c0.4-0.2,1-0.3,1.5-0.2c-0.5-0.4-1-0.7-1.7-0.7C26.4,45.2,26.5,45.5,26.5,45.8z"/>
	<path class="st2" d="M20.8,45.8L20,46.4l-0.9-0.6c-0.1-0.1-0.2-0.1-0.3-0.1h-0.1c0-0.5-0.2-1-0.3-1.5c0.9-0.6,1.5-1.5,2-2.4
		c0.2-0.7,0.1-1.5-0.2-2.2c-0.2-0.3-0.5-0.4-0.8-0.4c-0.1,0-0.2,0-0.3,0c-0.1,0-0.2,0.1-0.3,0.2l-0.1,0.1c-0.6,1.1-1.6,2-2.7,2.4
		l-1.3-1.3c-0.4-0.5-1.8-1.9-2.8-1.9c-0.3,0-0.5,0.1-0.7,0.2c-0.6,0.4-0.9,1.1-1,1.8c0,0.3,0.1,0.6,0.3,0.9c0.3,0.3,1.7,1.6,2.2,2
		c-0.3,0.2-0.5,0.4-0.7,0.8c-0.1,0.3-0.2,0.6-0.2,0.9c-0.1,0.3-0.1,0.6,0,0.9c-0.1,0.2-0.1,0.4-0.2,0.5v0.1
		c-0.6,1.8,1.1,3.1,1.4,3.3c0.3,0.2,0.6,0.4,0.9,0.5c0.4,0.1,0.7,0.1,1.1,0.1l0,0c0.5,0,1-0.1,1.5-0.4l0.1,0.1
		c0.2,0.2,0.4,0.3,0.7,0.3l0,0c0.4,0,0.9-0.2,1.1-0.5l0,0c0.1,0,0.1,0,0.2,0c0.5,0,0.9-0.1,1.3-0.2c0.3-0.1,0.6-0.2,0.9-0.5
		L20.8,45.8z"/>
	<path class="st3" d="M28,47.5c0,0-2.1-0.6-2.2-1.3c-0.6,0-1.1,0.3-1.3,0.9c-0.4-0.4-0.8-0.9-1.1-1.3c-0.4-0.7-0.8-0.4-0.9-0.4
		s-2.4,1.8-2.4,1.8l-1.2-0.8c0.1,1.1,0,2.2-0.3,3.2c0.4,0,0.8-0.1,1.2-0.2c0.9-0.2,2.9-2.2,3.6-2.8c-0.2,0.4-0.5,0.7-0.8,1
		c-0.2,1.9-0.5,3.9-1.1,5.7l0,0c0.5,0.2,0.9,0.5,1.4,0.7l0.7-0.3l0,0l0.7-0.4h0.1c0.5-0.3,1-0.5,1.4-0.8h0l0.6-0.4l0,0l1.3-0.9h0.1
		c0.4-0.3,0.9-0.6,1.2-0.9l0,0C28.8,49.3,28.5,48.4,28,47.5z"/>
	<path class="st3" d="M18.5,47.4l-0.7,0.4c0,0,0,1.5-1,2.1C17.2,50.3,18.6,49.8,18.5,47.4z"/>
	<path class="st3" d="M17.7,44.1c0,0,1.9-1.7,2.1-2.4s0.1-2.1-0.7-1.9c-0.7,1.3-2,2.3-3.4,2.8L14.2,41c0,0-2-2.3-2.8-1.7
		s-1,1.5-0.7,1.9s2.3,2.1,2.3,2.1l0.4,0.3c0,0-1,0.5-1.1,0.9c-0.2,0.5-0.2,1-0.2,1.5c0.1,0.1-0.2,0.9-0.2,0.9s-0.6,1.9-0.2,1.9
		c0.7,0.4,1.4,0.8,2,1.2c0.8,0.2,1.7,0.2,2.4-0.2c0.7-0.5,1.1-1.3,1.2-2.2C17.7,47.3,18.7,46.9,17.7,44.1z"/>
	<path class="st2" d="M14.4,50h-0.2c-1-0.1-2-0.5-2.8-1.2c-0.7-0.7-0.5-1.9,0.4-2.8c0.1-0.1,0.3-0.2,0.4-0.2c0.1,0,0.2,0,0.3,0.1
		c0.9,0.7,1.9,1.2,2.9,1.5c0.3,0,0.6,0.3,0.6,0.6c0,0,0,0,0,0c0,0.4-0.1,0.8-0.3,1.2C15.5,49.7,14.9,50,14.4,50z"/>
	<path class="st3" d="M12.2,46.4c0,0,2.4,1.6,3.2,1.6c0,0.4-0.2,1.6-1.2,1.5c-0.9-0.1-1.8-0.4-2.5-1C11.3,48,11.5,47.1,12.2,46.4z"
		/>
	<path class="st2" d="M15.7,48.2h-0.2c-1.5-0.3-2.8-1-3.8-2.1c-0.2-0.5-0.2-1.2,0-1.7c0.3-0.5,0.8-0.8,1.3-0.9h0.2
		c0,0,0.9,0.2,1.8,0.5c1.8,0.6,2.2,1,2.3,1.4c0.2,0.7,0.1,1.5-0.3,2.1C16.7,48,16.2,48.2,15.7,48.2z"/>
	<path class="st3" d="M13.1,44.1c0,0,3.5,0.9,3.7,1.6s-0.1,2.1-1.2,2c-1.3-0.3-2.4-0.9-3.4-1.8c-0.3-0.6-0.1-1.3,0.4-1.6
		C12.8,44.1,12.9,44.1,13.1,44.1z"/>
	<path class="st2" d="M28.4,48.1c-0.3-0.8-0.6-1.5-1.1-2.2c-0.1-0.1-0.2-0.2-0.4-0.2h-0.1c-0.1,0-0.3,0.1-0.4,0.2
		c-0.1-0.1-0.2-0.2-0.4-0.2c-0.1,0-0.2,0-0.3,0.1c-0.3,0.2-0.3,0.5-0.2,0.8c0.2,1.3,0.3,2.6,0.2,3.9c0,0.1,0,0.3,0.1,0.4l0.9,1
		c0.7-0.5,1.5-1,2.1-1.4C28.9,49.6,28.7,48.8,28.4,48.1z"/>
	<path class="st6" d="M26.1,46.2c0.4,0.9,0.2,4.2,0.2,4.2l0.9,1.1c0.4-0.2,0.7-0.5,1-0.7v-0.1c0.3-1-1-3.9-1.4-4.5
		C26.6,46.4,26.3,46.4,26.1,46.2C26.1,46.2,26.1,46.2,26.1,46.2z"/>
	<path class="st3" d="M37,47.9c-0.2-0.1-0.4-0.2-0.6-0.2c0.3,0.3,0.4,0.8,0.3,1.2c-0.1,0.6-1.2,0.9-1.7,0.6
		c-0.5-0.3-0.7-0.9-0.6-1.4c0,0.6,0.4,1.1,1,1.2c0.1,0,0.3,0,0.4,0c0.5-0.1,0.7-0.8,0.2-1.3c-0.1-0.1-0.3-0.3-0.5-0.3
		c-0.4,0-0.7,0-1.1,0c-0.8,0.1-1.5,0.3-2.2,0.7l-0.2,1.9c0,0,0.5,0.2,1.3,0.6c0.1,0,0.2,0,0.3,0h0.1c0.3,0,0.5-0.1,0.8-0.2
		c0.2-0.1,0.5-0.3,0.7-0.5h0.1c0,0,0.1,0,0.1,0c0,0,0,0.1,0,0.1c-0.2,0.3-0.4,0.5-0.7,0.6l0,0c-0.2,0.1-0.3,0.2-0.5,0.2
		c0.8,0.2,1.6,0.2,2.4,0c-0.1,0.5-0.1,1-0.1,1.4c0.1,0.3,0.3,0.3,0.5,0.2c-0.1-0.1-0.1-0.2-0.2-0.3c-0.1-0.2-0.1-0.4-0.1-0.7
		c0-0.4,0.1-0.8,0.2-1.2c0,0,0.1-0.1,0.1-0.1l0,0c0.1,0,0.1,0.1,0.1,0.1c0,0.2-0.1,0.4-0.1,0.6c0,0.2,0,0.4,0,0.6
		c0,0.2,0,0.4,0.1,0.5c0.1,0.2,0.2,0.3,0.3,0.4c0.6,0.2,0.8-0.3,0.9-0.6c-0.1,0-0.1-0.1-0.2-0.1c-0.2-0.2-0.3-0.4-0.3-0.6
		c-0.1-0.2-0.1-0.4-0.1-0.7c0-0.2,0-0.4,0-0.6c0,0-0.1,0-0.1,0c-0.1,0-0.1-0.1-0.2-0.2c-0.1-0.1-0.1-0.3,0-0.4
		c0-0.1,0.1-0.1,0.1-0.1l0,0c0.1,0,0.1,0.1,0.1,0.1c0,0.1,0,0.2,0,0.3c0,0,0,0.1,0.1,0.1h0.1l0,0c0.1,0,0.1,0.1,0.1,0.1l0,0
		c0,0.2,0,0.4,0,0.6c0,0.2,0.1,0.4,0.1,0.6c0.1,0.2,0.2,0.4,0.3,0.5c0.1,0.1,0.1,0.1,0.2,0.2h0.2c0.3-0.1,0.4-0.6,0.4-1.4
		C39,48.6,37.9,48.3,37,47.9z"/>
	
		<linearGradient id="SVGID_2_" gradientUnits="userSpaceOnUse" x1="50.52" y1="28.4688" x2="171.54" y2="29.2688" gradientTransform="matrix(1 0 0 -1 0 57)">
		<stop  offset="0" style="stop-color:#2C31CF"/>
		<stop  offset="1" style="stop-color:#5419DD"/>
	</linearGradient>
	<path class="st7" d="M49.3,18.6h11.8v6.8h-4.8v-2.9h-2.3v12h2.3v-2.8h4.8v6.8H49.3V18.6z"/>
	
		<linearGradient id="SVGID_3_" gradientUnits="userSpaceOnUse" x1="50.52" y1="28.3763" x2="171.54" y2="29.1763" gradientTransform="matrix(1 0 0 -1 0 57)">
		<stop  offset="0" style="stop-color:#2C31CF"/>
		<stop  offset="1" style="stop-color:#5419DD"/>
	</linearGradient>
	<path class="st8" d="M63.3,38.4V18.6h11.8v19.8H63.3z M70.4,34.5v-12h-2.3v12H70.4z"/>
	
		<linearGradient id="SVGID_4_" gradientUnits="userSpaceOnUse" x1="50.52" y1="28.2838" x2="171.54" y2="29.0838" gradientTransform="matrix(1 0 0 -1 0 57)">
		<stop  offset="0" style="stop-color:#2C31CF"/>
		<stop  offset="1" style="stop-color:#5419DD"/>
	</linearGradient>
	<path class="st9" d="M77.3,38.4V18.6h7.6l4.3,4.3v15.6H77.3z M84.4,34.5V24l-1.6-1.6h-0.8v12L84.4,34.5z"/>
	
		<linearGradient id="SVGID_5_" gradientUnits="userSpaceOnUse" x1="50.52" y1="28.1913" x2="171.54" y2="28.9913" gradientTransform="matrix(1 0 0 -1 0 57)">
		<stop  offset="0" style="stop-color:#2C31CF"/>
		<stop  offset="1" style="stop-color:#5419DD"/>
	</linearGradient>
	<path class="st10" d="M91.3,38.4V18.6h11.8v3.9h-7.1v4h5.9v3.9h-5.9v4.1h7.1v3.9L91.3,38.4z"/>
	
		<linearGradient id="SVGID_6_" gradientUnits="userSpaceOnUse" x1="50.52" y1="28.0988" x2="171.54" y2="28.8988" gradientTransform="matrix(1 0 0 -1 0 57)">
		<stop  offset="0" style="stop-color:#2C31CF"/>
		<stop  offset="1" style="stop-color:#5419DD"/>
	</linearGradient>
	<path class="st11" d="M105.3,18.6h4.8v15.9h7.1v3.9h-11.8V18.6z"/>
	
		<linearGradient id="SVGID_7_" gradientUnits="userSpaceOnUse" x1="50.52" y1="28.0065" x2="171.54" y2="28.8065" gradientTransform="matrix(1 0 0 -1 0 57)">
		<stop  offset="0" style="stop-color:#2C31CF"/>
		<stop  offset="1" style="stop-color:#5419DD"/>
	</linearGradient>
	<path class="st12" d="M119.3,38.4V18.6h11.8v3.9H124v4h5.9v3.9H124v4.1h7.1v3.9L119.3,38.4z"/>
	
		<linearGradient id="SVGID_8_" gradientUnits="userSpaceOnUse" x1="50.52" y1="27.9131" x2="171.54" y2="28.7131" gradientTransform="matrix(1 0 0 -1 0 57)">
		<stop  offset="0" style="stop-color:#2C31CF"/>
		<stop  offset="1" style="stop-color:#5419DD"/>
	</linearGradient>
	<path class="st13" d="M133,38.4l0.9-19.8h10l0.9,19.8H140l-0.1-5.8h-2l-0.1,5.8H133z M139.7,28.7l-0.2-6.2h-1.2l-0.2,6.2
		L139.7,28.7z"/>
	
		<linearGradient id="SVGID_9_" gradientUnits="userSpaceOnUse" x1="50.52" y1="27.8167" x2="171.54" y2="28.6267" gradientTransform="matrix(1 0 0 -1 0 57)">
		<stop  offset="0" style="stop-color:#2C31CF"/>
		<stop  offset="1" style="stop-color:#5419DD"/>
	</linearGradient>
	<path class="st14" d="M146.7,38.4V18.6h11.8v7.2l-2.5,2.8l2.5,2.7v7.2h-4.8v-7.1l-0.9-0.9h-1.5v8L146.7,38.4z M151.4,26.5h1.5
		l0.9-0.9v-3.2h-2.3V26.5z"/>
	
		<linearGradient id="SVGID_10_" gradientUnits="userSpaceOnUse" x1="50.53" y1="27.7328" x2="171.54" y2="28.5328" gradientTransform="matrix(1 0 0 -1 0 57)">
		<stop  offset="0" style="stop-color:#2C31CF"/>
		<stop  offset="1" style="stop-color:#5419DD"/>
	</linearGradient>
	<path class="st15" d="M160.7,38.4V18.6h4.8l2.3,7.7v-7.7h4.8v19.8h-4.6l-2.5-7.7v7.7H160.7z"/>
</g>
</svg>
